<svg xmlns="http://www.w3.org/2000/svg" xmlns:xlink="http://www.w3.org/1999/xlink" width="48" height="49.471" viewBox="0 0 48 49.471"><defs><style>.a,.c,.e{fill:none;}.b{fill:#191919;}.c,.d{stroke:#fff;}.c{stroke-miterlimit:10;}.d{fill:#fff;}.e{opacity:0.2;}.f{filter:url(#a);}</style><filter id="a" x="0" y="1.471" width="48" height="48" filterUnits="userSpaceOnUse"><feOffset dy="3" input="SourceAlpha"/><feGaussianBlur stdDeviation="3" result="b"/><feFlood flood-opacity="0.161"/><feComposite operator="in" in2="b"/><feComposite in="SourceGraphic"/></filter></defs><g transform="translate(75.971 457.471) rotate(180)"><g transform="translate(-9.029)"><g transform="translate(38.529 412.529)"><rect class="a" width="44.941" height="44.942"/><g transform="translate(-38.529 -412.529)"><g class="f" transform="matrix(-1, 0, 0, -1, 85, 457.47)"><circle class="b" cx="15" cy="15" r="15" transform="translate(39 37.47) rotate(180)"/></g><g transform="translate(53.703 426.073)"><path class="c" d="M-5289.784-1928.508s-1.58.279-1.139-1.488,1.268-3.77-1-5.051c-.526-.292-.641,1.141-.584,1.893s-.584,4.23-4.343,6.763v6.054h7.5a2.717,2.717,0,0,0,2.379-2.045c.469-1.92.9-4.454.9-4.454a1.393,1.393,0,0,0-1.423-1.671Z" transform="translate(5300.649 1935.085)"/><path class="d" d="M0,0H3.8V8.7H0Z" transform="translate(0 6.941)"/></g><rect class="e" width="20.85" height="20.85" transform="translate(50.575 423.467)"/></g></g></g></g></svg>