<svg xmlns="http://www.w3.org/2000/svg" xmlns:xlink="http://www.w3.org/1999/xlink" width="48" height="49.471" viewBox="0 0 48 49.471"><defs><style>.a,.c,.e{fill:none;}.b{fill:#fff;}.c,.d{stroke:#191919;stroke-miterlimit:10;}.d{fill:#191919;}.e{opacity:0.2;}.f{filter:url(#a);}</style><filter id="a" x="0" y="1.471" width="48" height="48" filterUnits="userSpaceOnUse"><feOffset dy="3" input="SourceAlpha"/><feGaussianBlur stdDeviation="3" result="b"/><feFlood flood-opacity="0.161"/><feComposite operator="in" in2="b"/><feComposite in="SourceGraphic"/></filter></defs><g transform="translate(-79 -409)"><g transform="translate(80.529 409)"><g transform="translate(44.942) rotate(90)"><rect class="a" width="44.941" height="44.942"/></g><g transform="translate(-80.529 -409)"><g class="f" transform="matrix(1, 0, 0, 1, 79, 409)"><path class="b" d="M15,0A15,15,0,1,1,0,15,15,15,0,0,1,15,0Z" transform="translate(39 7.47) rotate(90)"/></g><g transform="translate(5398.919 2347.631)"><path class="c" d="M6.776,6.31S5.26,6.577,5.683,4.882,6.9,1.266,4.727.037c-.5-.28-.614,1.094-.56,1.816S3.607,5.91,0,8.34v5.807H7.2a2.606,2.606,0,0,0,2.282-1.962c.451-1.842.86-4.272.86-4.272a1.336,1.336,0,0,0-1.365-1.6Z" transform="translate(-5285.336 -1921.131) rotate(89)"/><rect class="d" width="3.661" height="8.342" transform="translate(-5303.142 -1920.881)"/><rect class="e" width="26" height="26" transform="translate(-5307.148 -1928.833)"/></g></g></g></g></svg>